<?xml version="1.0" encoding="utf-8"?>
<!-- Generator: Adobe Illustrator 16.0.3, SVG Export Plug-In . SVG Version: 6.00 Build 0)  -->
<!DOCTYPE svg PUBLIC "-//W3C//DTD SVG 1.1//EN" "http://www.w3.org/Graphics/SVG/1.1/DTD/svg11.dtd">
<svg version="1.1" xmlns="http://www.w3.org/2000/svg" xmlns:xlink="http://www.w3.org/1999/xlink" x="0px" y="0px"
	 width="283.46px" height="283.46px" viewBox="0 0 283.46 283.46" enable-background="new 0 0 283.46 283.46" xml:space="preserve">
<g id="Capa_1">
</g>
<g id="Capa_2">
	<g>
		<path fill="none" d="M230.361,125.862c11.808,46.935-17.908,93.302-66.371,103.572c-48.466,10.268-97.325-19.454-109.134-66.388
			C43.05,116.112,72.767,69.74,121.23,59.474C169.695,49.205,218.555,78.929,230.361,125.862z"/>
		<text transform="matrix(0.4011 -0.9214 0.929 0.4161 52.895 123.6665)" font-family="'MyriadPro-Regular'" font-size="35.1122">M</text>
		<text transform="matrix(0.6262 -0.7856 0.8015 0.628 65.6382 96.5435)" font-family="'MyriadPro-Regular'" font-size="35.1122">a</text>
		<text transform="matrix(0.7534 -0.6683 0.6891 0.7464 74.7603 84.9736)" font-family="'MyriadPro-Regular'" font-size="35.1122">e</text>
		<text transform="matrix(0.8538 -0.5416 0.5665 0.8388 85.8647 75.1367)" font-family="'MyriadPro-Regular'" font-size="35.1122">s</text>
		<text transform="matrix(0.9191 -0.431 0.4587 0.8979 96.9771 68.1836)" font-family="'MyriadPro-Regular'" font-size="35.1122">t</text>
		<text transform="matrix(0.9663 -0.3243 0.3543 0.9397 105.3433 64.1597)" font-family="'MyriadPro-Regular'" font-size="35.1122">r</text>
		<text transform="matrix(1.0099 -0.1756 0.2079 0.9767 115.7378 60.3652)" font-family="'MyriadPro-Regular'" font-size="35.1122">o</text>
		<text transform="matrix(1.0296 -0.0364 0.0703 0.991 132.7554 57.6626)" font-family="'MyriadPro-Regular'" font-size="35.1122"> </text>
		<text transform="matrix(1.0309 0.0841 -0.0494 0.9883 141.105 57.1787)" font-family="'MyriadPro-Regular'" font-size="35.1122">J</text>
		<text transform="matrix(1.0106 0.2397 -0.2048 0.9636 154.3115 58.1113)" font-family="'MyriadPro-Regular'" font-size="35.1122">e</text>
		<text transform="matrix(0.9695 0.3802 -0.3458 0.9195 169.2305 61.7358)" font-family="'MyriadPro-Regular'" font-size="35.1122">r</text>
		<text transform="matrix(0.9076 0.5132 -0.48 0.8556 179.8701 65.6934)" font-family="'MyriadPro-Regular'" font-size="35.1122">e</text>
		<text transform="matrix(0.7698 0.7014 -0.6716 0.7169 193.4102 72.3989)" font-family="'MyriadPro-Regular'" font-size="35.1122">m</text>
		<text transform="matrix(0.6139 0.836 -0.8105 0.5625 212.9824 91.2822)" font-family="'MyriadPro-Regular'" font-size="35.1122">í</text>
		<text transform="matrix(0.4902 0.9091 -0.8872 0.4412 218.7227 98.6519)" font-family="'MyriadPro-Regular'" font-size="35.1122">a</text>
		
			<text transform="matrix(0.3354 0.9706 -0.9535 0.2904 225.9219 112.0186)" font-family="'MyriadPro-Regular'" font-size="35.1122">s</text>
		<text transform="matrix(1.0897 0 0 1 79.9854 219.3906)" font-family="'MyriadPro-Regular'" font-size="26.855">de la Cruz</text>
		<path d="M147.963,100.586c0,0,0.406-0.092-1.728,0.093c-6.808,6.901-8.637,16.692,2.439,35.901c2.438,0,25.199-0.188,25.199-0.188
			l-0.101-15.758h-25.506"/>
		<path d="M132.619,195.979c0,0,22.659-5.316,26.115-23.686c2.032,8.111-4.065,15.665-4.065,15.665s17.375-9.511,16.767-27.693
			c-2.237-16.039-21.035-21.449-21.035-21.449s3.354,4.944,4.474,10.54c-5.388-6.342-18.189-15.293-18.597-36.181
			c-7.011,15.386,6.299,32.636,6.299,32.636s10.566,16.039,4.574,29.372C141.155,188.519,132.619,195.979,132.619,195.979z"/>
		<path d="M142.68,100.586h-13.311l0.304,20.421l-25.605-0.28l-0.305,16.504h25.606l0.304,56.508c0,0,14.632-7.834,16.157-31.89
			c-2.744-16.227-10.873-19.955-12.193-32.73C130.893,110.471,142.68,100.586,142.68,100.586z"/>
		<path d="M140.189,105.343c5.258-6.155,9.831-6.295,15.852-8.952c2.438-1.049,4.42-4.686,4.878-9.861
			c0.38-1.818,4.571-1.118,4.571-1.118s-2.591-4.266-5.64-3.497c-5.106,2.028-4.344,2.867-6.63,2.867
			c-3.581-1.539-4.203-4.646-5.984-6.404c-6.769-6.678-10.399-8.212-10.399-8.212s-2.744,3.776,8.001,11.329
			c-5.944-2.308-8.764-6.643-8.764-6.643s-1.829,4.755,6.098,7.063c-3.963,0.56-7.164-3.567-7.164-3.567s-0.915,5.595,6.936,6.084
			c-0.763,2.098-6.708-1.259-6.708-1.259s1.449,7.763,7.545,7.274c4.42,0.559,7.924,1.258,5.335,3.986
			C144.971,97.742,141.104,102.615,140.189,105.343z"/>
	</g>
</g>
</svg>
